<?xml version="1.0" standalone="no"?><!DOCTYPE svg PUBLIC "-//W3C//DTD SVG 1.1//EN" "http://www.w3.org/Graphics/SVG/1.1/DTD/svg11.dtd"><svg t="1625671915765" class="icon" viewBox="0 0 1024 1024" version="1.1" xmlns="http://www.w3.org/2000/svg" p-id="935" xmlns:xlink="http://www.w3.org/1999/xlink" width="200" height="200"><defs><style type="text/css"></style></defs><path d="M684.8 704h-12.8c-57.6 0-104.533333-46.933333-104.533333-104.533333V326.4c0-57.6 46.933333-104.533333 104.533333-104.533333h12.8c57.6 0 104.533333 46.933333 104.533333 104.533333v273.066667c-2.133333 57.6-46.933333 104.533333-104.533333 104.533333z" fill="#3F9C68" p-id="936"></path><path d="M347.733333 757.333333h-12.8c-57.6 0-104.533333-46.933333-104.533333-104.533333v-213.333333c0-57.6 46.933333-104.533333 104.533333-104.533334h12.8c57.6 0 104.533333 46.933333 104.533334 104.533334v215.466666c0 57.6-46.933333 102.4-104.533334 102.4z" fill="#3F9C68" p-id="937"></path><path d="M520.533333 729.6h-17.066666c-72.533333 0-130.133333-57.6-130.133334-130.133333V238.933333c0-72.533333 57.6-130.133333 130.133334-130.133333h17.066666c72.533333 0 130.133333 57.6 130.133334 130.133333v360.533334c0 72.533333-59.733333 130.133333-130.133334 130.133333z" fill="#3F9C68" p-id="938"></path><path d="M454.4 234.666667l-2.133333-2.133334c-10.666667-10.666667-10.666667-27.733333 0-36.266666l21.333333-23.466667c10.666667-10.666667 25.6-10.666667 36.266667 0l2.133333 2.133333c10.666667 10.666667 10.666667 27.733333 0 36.266667L490.666667 234.666667c-8.533333 10.666667-25.6 10.666667-36.266667 0zM676.266667 356.266667l-2.133334-2.133334c-10.666667-10.666667-10.666667-27.733333 0-36.266666l21.333334-23.466667c10.666667-10.666667 25.6-10.666667 36.266666 0l2.133334 2.133333c10.666667 10.666667 10.666667 27.733333 0 36.266667l-21.333334 23.466667c-8.533333 10.666667-25.6 10.666667-36.266666 0zM548.266667 302.933333l-2.133334-2.133333c-10.666667-10.666667-10.666667-27.733333 0-36.266667l21.333334-23.466666c10.666667-10.666667 25.6-10.666667 36.266666 0l2.133334 2.133333c10.666667 10.666667 10.666667 27.733333 0 36.266667l-21.333334 23.466666c-10.666667 10.666667-27.733333 10.666667-36.266666 0zM292.266667 473.6l-2.133334-2.133333c-10.666667-10.666667-10.666667-27.733333 0-36.266667l21.333334-23.466667c10.666667-10.666667 25.6-10.666667 36.266666 0l2.133334 2.133334c10.666667 10.666667 10.666667 27.733333 0 36.266666l-21.333334 23.466667c-10.666667 10.666667-25.6 10.666667-36.266666 0zM433.066667 388.266667l-2.133334-2.133334c-10.666667-10.666667-10.666667-27.733333 0-36.266666l21.333334-23.466667c10.666667-10.666667 25.6-10.666667 36.266666 0l2.133334 2.133333c10.666667 10.666667 10.666667 27.733333 0 36.266667l-21.333334 23.466667c-8.533333 10.666667-25.6 10.666667-36.266666 0zM526.933333 465.066667l-2.133333-2.133334c-10.666667-10.666667-10.666667-27.733333 0-36.266666l21.333333-23.466667c10.666667-10.666667 25.6-10.666667 36.266667 0l2.133333 2.133333c10.666667 10.666667 10.666667 27.733333 0 36.266667l-21.333333 23.466667c-10.666667 10.666667-25.6 10.666667-36.266667 0zM704 482.133333l-2.133333-2.133333c-10.666667-10.666667-10.666667-27.733333 0-36.266667l21.333333-23.466666c10.666667-10.666667 25.6-10.666667 36.266667 0l2.133333 2.133333c10.666667 10.666667 10.666667 27.733333 0 36.266667l-21.333333 23.466666c-8.533333 10.666667-25.6 10.666667-36.266667 0z" fill="#256E53" p-id="939"></path><path d="M674.133333 942.933333H345.6c-21.333333 0-38.4-12.8-42.666667-29.866666L209.066667 588.8c-10.666667-36.266667 21.333333-72.533333 66.133333-72.533333h456.533333c42.666667 0 74.666667 34.133333 66.133334 70.4l-78.933334 326.4c-4.266667 19.2-23.466667 29.866667-44.8 29.866666z" fill="#3C5060" p-id="940"></path><path d="M802.133333 665.6h-597.333333c-23.466667 0-42.666667-19.2-42.666667-42.666667v-64c0-23.466667 19.2-42.666667 42.666667-42.666666h597.333333c23.466667 0 42.666667 19.2 42.666667 42.666666v64c0 25.6-19.2 42.666667-42.666667 42.666667z" fill="#253F58" p-id="941"></path></svg>