<?xml version="1.0" standalone="no"?><!DOCTYPE svg PUBLIC "-//W3C//DTD SVG 1.1//EN" "http://www.w3.org/Graphics/SVG/1.1/DTD/svg11.dtd"><svg t="1625671964363" class="icon" viewBox="0 0 1024 1024" version="1.1" xmlns="http://www.w3.org/2000/svg" p-id="1086" xmlns:xlink="http://www.w3.org/1999/xlink" width="200" height="200"><defs><style type="text/css"></style></defs><path d="M921.795048 409.014857c16.091429 0 16.091429 24.673524 0 24.673524h-44.519619c0.536381 30.037333 0.536381 60.074667 0.536381 90.112 13.409524 0.536381 26.819048 1.072762 40.228571 0.536381 16.091429-0.536381 16.091429 24.137143 0 24.673524-13.409524 0.536381-26.819048 0.536381-40.228571-0.536381 0 23.064381 0 46.128762 0.53638 69.193143 0 42.374095 10.727619 113.712762-48.274285 118.003809-68.656762 5.36381-139.459048 1.072762-208.652191 1.072762 0 30.573714 0 60.611048-0.536381 91.184762h36.473905c16.091429 0 16.091429 24.673524 0 24.673524h-36.473905c-0.536381 43.446857-1.609143 86.357333-2.681904 129.80419 0 6.972952-5.36381 12.336762-12.336762 12.336762a3365.205333 3365.205333 0 0 1-180.224-1.609143c-15.018667-0.536381-33.792 2.145524-40.228572-14.482285-7.509333-19.309714-1.072762-50.41981-1.072762-70.802286v-144.822857c-14.482286-1.072762-28.964571-2.145524-43.983238-2.145524-16.091429 0-16.091429-24.673524 0-24.673524 14.482286 0 28.964571 0.536381 43.983238 2.145524v-76.702476c-13.945905-1.072762-27.355429-1.609143-41.301333-1.072762-16.091429 0.536381-16.091429-24.673524 0-24.673524 13.945905-0.536381 27.355429 0 41.301333 1.072762V560.274286H264.192c-30.573714 0-64.902095-0.536381-89.575619-20.918857-20.918857-17.700571-28.42819-43.983238-30.037333-70.802286-2.145524-24.673524-1.072762-49.347048-0.536381-74.556953-11.800381-1.072762-23.600762-1.072762-35.401143-1.072761-16.091429 0.536381-16.091429-24.137143 0-24.673524 12.336762-0.536381 24.137143 0 36.473905 1.072762 0-5.36381 0-10.191238 0.536381-15.555048 0-18.236952 0.536381-36.473905 0.53638-54.710857H103.814095c-16.091429 0-16.091429-24.673524 0-24.673524h42.374095c0-16.091429 0.536381-32.182857 0.536381-48.810667 0.536381-28.42819 5.90019-55.247238 28.428191-75.093333 22.528-19.309714 52.028952-25.746286 80.993524-23.600762 25.746286 2.145524 57.929143 6.972952 71.875047 31.110095 16.091429 27.355429 9.654857 68.656762 9.654857 98.694096l1.609143 108.348952c14.482286 0 28.42819 0 42.910477-0.536381 4.291048 0 21.991619 2.145524 26.282666 0.536381-1.072762-1.072762 0-12.873143 0-14.482286V143.506286c0-28.42819-3.218286-59.001905 12.873143-84.21181C453.534476 10.48381 501.272381 0.828952 555.446857 10.48381c48.810667 9.118476 85.284571 60.074667 93.866667 107.27619v3.754667a10.435048 10.435048 0 0 1 0.536381 4.291047c0.536381 84.74819 0.536381 169.496381 0 253.708191v127.122285c0 9.654857-6.436571 48.810667 2.145524 56.32 6.436571 5.90019 37.546667 2.145524 46.128761 0.536381 21.991619-3.754667 17.16419-30.573714 18.236953-49.347047 1.072762-18.773333 1.609143-38.083048 1.609143-56.856381 0-34.864762-1.609143-69.729524-2.681905-104.594286a1597.147429 1597.147429 0 0 1 0.536381-101.376c0.536381-25.209905-1.609143-50.95619 1.609143-75.629714 5.90019-43.446857 48.810667-72.94781 91.184762-64.365714 22.528 4.291048 46.128762 16.62781 56.32 38.619428 7.509333 16.091429 6.972952 37.010286 8.045714 54.710857 0 4.291048 0.536381 8.582095 0.536381 12.873143h46.128762c16.091429 0 16.091429 24.673524 0 24.673524h-45.592381c1.072762 21.991619 1.609143 43.983238 2.145524 65.974857h32.182857c16.091429 0 16.091429 24.673524 0 24.673524h-31.646476l1.609142 74.556952c13.409524 1.609143 28.42819 1.609143 43.446858 1.609143z m-73.484191 289.645714c6.972952-13.409524 4.827429-32.182857 4.827429-46.665142v-57.392762c0-37.010286-0.536381-74.020571-1.072762-110.494477a12047.506286 12047.506286 0 0 0-3.754667-196.851809 2320.822857 2320.822857 0 0 0-2.681905-86.357333c-1.609143-26.819048-3.754667-48.810667-32.182857-59.538286-29.500952-11.264-64.365714 1.609143-72.947809 34.328381-6.436571 24.137143-1.609143 53.101714-2.145524 78.311619-1.609143 65.438476 2.145524 130.876952 2.681905 196.315428 0.536381 34.864762-0.536381 69.729524-5.36381 104.057905-2.145524 18.236952-5.36381 32.182857-25.746286 35.937524-17.16419 2.681905-49.883429 5.90019-66.511238 0-20.382476-6.972952-20.382476-24.673524-20.382476-42.910476-0.536381-139.995429 0.536381-279.990857-0.536381-419.986286v-1.072762c-4.827429-27.355429-21.455238-55.247238-41.301333-74.556952C561.883429 32.475429 517.90019 28.184381 492.153905 34.084571c-28.964571 6.972952-57.392762 36.473905-60.611048 65.974858-3.218286 28.964571-0.536381 59.538286-0.536381 88.502857v91.721143c0 28.964571 4.291048 61.147429 0 89.575619-2.145524 13.409524-8.045714 19.846095-21.455238 21.455238-27.355429 3.218286-57.392762 0.536381-84.74819 0-8.045714 0-11.800381-6.436571-11.800381-12.336762 0-1.072762-0.536381-2.145524-0.536381-3.218286l-1.609143-117.467428c0-17.700571 0-35.401143-0.536381-53.638096-0.536381-23.064381-5.90019-40.228571-29.500952-47.201524-34.328381-9.654857-83.675429-8.045714-103.521524 27.355429-9.654857 17.700571-7.509333 40.228571-8.045715 59.538286 0 19.309714-0.536381 38.083048-0.536381 57.392762l-1.609142 119.612952c-0.536381 30.573714-5.36381 72.411429 18.236952 96.012191s64.902095 18.236952 95.47581 18.773333h109.958095c1.072762 0 2.681905 0 3.754666 0.536381 6.436571 0 12.873143 3.754667 12.873143 11.800381v398.531047c0 5.90019-1.072762 13.409524 0 19.309715v2.145523c0.536381 0 1.072762 0 2.145524 0.536381 11.264 2.681905 26.282667 1.072762 38.083048 1.072762 48.274286 1.609143 96.01219 1.609143 144.286476 1.072762 2.145524-82.066286 3.218286-164.132571 2.681905-246.198857 0-6.972952 5.90019-12.336762 12.336762-12.336762 40.228571 0 80.993524-0.536381 121.222095-0.536381h58.465524c19.309714-0.536381 51.492571 5.36381 61.683809-13.409524z" fill="#256E53" p-id="1087"></path><path d="M853.138286 651.995429c0 14.482286 2.145524 33.255619-4.827429 46.665142-10.191238 18.773333-42.374095 12.873143-60.611047 12.873143h-58.465524c-40.228571 0-80.993524 0-121.222096 0.536381a12.873143 12.873143 0 0 0-12.336761 12.336762c0.536381 82.066286-0.536381 164.132571-2.681905 246.198857-48.274286 0.536381-96.01219 0.536381-144.286476-1.072762-11.800381-0.536381-26.282667 1.609143-38.083048-1.072762-1.072762 0-1.609143-0.536381-2.145524-0.53638v-2.145524c-1.072762-5.90019 0-12.873143 0-19.309715v-398.531047c0-8.045714-6.436571-12.336762-12.873143-11.800381-1.072762-0.536381-2.145524-0.536381-3.754666-0.536381H281.892571c-30.573714 0-71.875048 5.36381-95.475809-18.773333s-18.773333-65.438476-18.236952-96.012191l1.609142-119.612952c0-19.309714 0.536381-38.083048 0.536381-57.392762s-1.609143-41.837714 8.045715-59.538286c19.309714-35.937524 68.656762-37.010286 103.521523-27.355428 23.600762 6.436571 28.964571 24.137143 29.500953 47.201523 0.536381 17.700571 0.536381 35.401143 0.536381 53.638096l1.609143 117.467428c0 1.072762 0 2.145524 0.536381 3.218286 0 5.90019 4.291048 12.336762 11.800381 12.336762 27.355429 0.536381 57.392762 3.218286 84.74819 0 13.409524-1.609143 19.309714-8.045714 21.455238-21.455238 4.291048-28.42819 0-60.611048 0-89.575619V188.025905c0-28.964571-2.681905-59.538286 0.536381-88.502857 3.218286-29.500952 31.646476-59.001905 60.611048-65.974858 25.209905-5.90019 69.729524-1.609143 89.039238 17.700572 19.846095 19.309714 36.473905 47.201524 41.301333 74.556952v1.072762c1.072762 139.995429-0.536381 279.990857 0.536381 419.986286 0 18.236952 0 35.401143 20.382476 42.910476 16.62781 5.90019 49.347048 2.681905 66.511238 0 20.382476-3.754667 23.064381-17.700571 25.746286-35.937524 4.291048-34.328381 5.36381-69.193143 5.36381-104.057904-0.536381-65.438476-4.291048-130.876952-2.681905-196.315429 0.536381-24.673524-4.291048-53.638095 2.145524-78.311619 8.582095-32.719238 42.910476-45.592381 72.947809-34.328381 28.42819 10.727619 30.573714 32.719238 32.182857 59.538286 1.609143 28.964571 2.145524 57.392762 2.681905 86.357333 1.609143 65.438476 2.681905 131.413333 3.754667 196.85181 0.536381 37.010286 0.536381 74.020571 1.072762 110.494476-1.072762 19.309714-1.072762 38.619429-1.072762 57.929143z m-76.166096-206.506667c0.536381 16.091429 25.209905 16.091429 24.673524 0a4607.658667 4607.658667 0 0 1-1.609143-243.516952c0.536381-16.091429-24.673524-16.091429-24.673523 0a4611.413333 4611.413333 0 0 0 1.609142 243.516952zM518.972952 104.886857c0-16.091429-24.673524-16.091429-24.673523 0l-3.218286 258.535619c0 16.091429 24.673524 16.091429 24.673524 0l3.218285-258.535619zM216.454095 368.249905c0.536381 16.091429 25.209905 16.091429 24.673524 0a2325.942857 2325.942857 0 0 1-1.072762-136.777143c0.536381-16.091429-24.673524-16.091429-24.673524 0a2907.184762 2907.184762 0 0 0 1.072762 136.777143z" fill="#3F9C68" p-id="1088"></path><path d="M801.645714 445.488762c0.536381 16.091429-24.137143 16.091429-24.673524 0a4607.658667 4607.658667 0 0 1-1.609142-243.516952c0.536381-16.091429 25.209905-16.091429 24.673523 0a4611.413333 4611.413333 0 0 0 1.609143 243.516952zM494.299429 104.886857c0-16.091429 25.209905-16.091429 24.673523 0l-3.218285 258.535619c0 16.091429-25.209905 16.091429-24.673524 0l3.218286-258.535619zM241.664 368.249905c0.536381 16.091429-24.137143 16.091429-24.673524 0a2325.942857 2325.942857 0 0 1-1.072762-136.777143c0.536381-16.091429 25.209905-16.091429 24.673524 0a2325.942857 2325.942857 0 0 0 1.072762 136.777143z" fill="#256E53" p-id="1089"></path></svg>