<?xml version="1.0" encoding="utf-8"?>
<!-- Generator: Adobe Illustrator 25.0.0, SVG Export Plug-In . SVG Version: 6.00 Build 0)  -->
<svg version="1.1" id="图层_1" xmlns="http://www.w3.org/2000/svg" xmlns:xlink="http://www.w3.org/1999/xlink" x="0px" y="0px"
	 viewBox="0 0 600 600" style="enable-background:new 0 0 600 600;" xml:space="preserve">
<style type="text/css">
	.st0{fill:url(#SVGID_1_);stroke:url(#SVGID_2_);stroke-width:2;stroke-linecap:round;stroke-linejoin:round;stroke-miterlimit:10;}
	.st1{fill:none;stroke:url(#SVGID_3_);stroke-width:2;stroke-linecap:round;stroke-linejoin:round;stroke-miterlimit:10;}
	.st2{fill:none;stroke:url(#SVGID_4_);stroke-width:2;stroke-linecap:round;stroke-linejoin:round;stroke-miterlimit:10;}
	.st3{fill:none;stroke:url(#SVGID_5_);stroke-width:2;stroke-linecap:round;stroke-linejoin:round;stroke-miterlimit:10;}
	.st4{fill:none;stroke:url(#SVGID_6_);stroke-width:2;stroke-linecap:round;stroke-linejoin:round;stroke-miterlimit:10;}
	.st5{fill:none;stroke:url(#SVGID_7_);stroke-width:2;stroke-linecap:round;stroke-linejoin:round;stroke-miterlimit:10;}
	.st6{fill:url(#SVGID_8_);stroke:url(#SVGID_9_);stroke-width:2;stroke-linecap:round;stroke-linejoin:round;stroke-miterlimit:10;}
	.st7{fill:none;stroke:url(#SVGID_10_);stroke-width:2;stroke-linecap:round;stroke-linejoin:round;stroke-miterlimit:10;}
	.st8{fill:none;stroke:url(#SVGID_11_);stroke-width:2;stroke-linecap:round;stroke-linejoin:round;stroke-miterlimit:10;}
	.st9{fill:none;stroke:url(#SVGID_12_);stroke-width:2;stroke-linecap:round;stroke-linejoin:round;stroke-miterlimit:10;}
	.st10{fill:none;stroke:url(#SVGID_13_);stroke-width:2;stroke-linecap:round;stroke-linejoin:round;stroke-miterlimit:10;}
	.st11{fill:none;stroke:url(#SVGID_14_);stroke-width:2;stroke-linecap:round;stroke-linejoin:round;stroke-miterlimit:10;}
	.st12{fill:none;stroke:url(#SVGID_15_);stroke-width:2;stroke-linecap:round;stroke-linejoin:round;stroke-miterlimit:10;}
	.st13{fill:url(#SVGID_16_);stroke:url(#SVGID_17_);stroke-width:2;stroke-miterlimit:10;}
	.st14{fill:none;stroke:url(#SVGID_18_);stroke-width:2;stroke-linecap:round;stroke-linejoin:round;stroke-miterlimit:10;}
	.st15{fill:none;stroke:url(#SVGID_19_);stroke-width:2;stroke-linecap:round;stroke-linejoin:round;stroke-miterlimit:10;}
	.st16{fill:url(#SVGID_20_);stroke:url(#SVGID_21_);stroke-width:2;stroke-miterlimit:10;}
	.st17{fill:none;stroke:url(#SVGID_22_);stroke-width:2;stroke-linecap:round;stroke-linejoin:round;stroke-miterlimit:10;}
	.st18{fill:url(#SVGID_23_);stroke:url(#SVGID_24_);stroke-width:2;stroke-miterlimit:10;}
	.st19{fill:none;stroke:url(#SVGID_25_);stroke-width:2;stroke-linecap:round;stroke-linejoin:round;stroke-miterlimit:10;}
	.st20{fill:none;stroke:url(#SVGID_26_);stroke-width:2;stroke-linecap:round;stroke-linejoin:round;stroke-miterlimit:10;}
	
		.st21{fill:url(#SVGID_27_);stroke:url(#SVGID_28_);stroke-width:2;stroke-linecap:round;stroke-linejoin:round;stroke-miterlimit:10;}
	
		.st22{fill:url(#SVGID_29_);stroke:url(#SVGID_30_);stroke-width:2;stroke-linecap:round;stroke-linejoin:round;stroke-miterlimit:10;}
	.st23{fill:none;stroke:url(#SVGID_31_);stroke-width:2;stroke-linecap:round;stroke-linejoin:round;stroke-miterlimit:10;}
	.st24{fill:none;stroke:url(#SVGID_32_);stroke-width:2;stroke-linecap:round;stroke-linejoin:round;stroke-miterlimit:10;}
	.st25{fill:none;stroke:url(#SVGID_33_);stroke-width:2;stroke-linecap:round;stroke-linejoin:round;stroke-miterlimit:10;}
	.st26{fill:none;stroke:url(#SVGID_34_);stroke-width:2;stroke-linecap:round;stroke-linejoin:round;stroke-miterlimit:10;}
	
		.st27{fill:url(#SVGID_35_);stroke:url(#SVGID_36_);stroke-width:2;stroke-linecap:round;stroke-linejoin:round;stroke-miterlimit:10;}
	.st28{fill:none;stroke:url(#SVGID_37_);stroke-width:2;stroke-linecap:round;stroke-linejoin:round;stroke-miterlimit:10;}
	.st29{fill:none;stroke:url(#SVGID_38_);stroke-width:2;stroke-linecap:round;stroke-linejoin:round;stroke-miterlimit:10;}
	.st30{fill:none;stroke:url(#SVGID_39_);stroke-width:2;stroke-linecap:round;stroke-linejoin:round;stroke-miterlimit:10;}
	.st31{fill:none;stroke:url(#SVGID_40_);stroke-width:2;stroke-linecap:round;stroke-linejoin:round;stroke-miterlimit:10;}
	
		.st32{fill:url(#SVGID_41_);stroke:url(#SVGID_42_);stroke-width:2;stroke-linecap:round;stroke-linejoin:round;stroke-miterlimit:10;}
	.st33{fill:none;stroke:url(#SVGID_43_);stroke-width:2;stroke-linecap:round;stroke-linejoin:round;stroke-miterlimit:10;}
	.st34{fill:none;stroke:url(#SVGID_44_);stroke-width:2;stroke-linecap:round;stroke-linejoin:round;stroke-miterlimit:10;}
	.st35{fill:none;stroke:url(#SVGID_45_);stroke-width:2;stroke-linecap:round;stroke-linejoin:round;stroke-miterlimit:10;}
</style>
<g>
	<g>
		<linearGradient id="SVGID_1_" gradientUnits="userSpaceOnUse" x1="395.1696" y1="446.3496" x2="395.1696" y2="212.8587">
			<stop  offset="0" style="stop-color:#76B0A7"/>
			<stop  offset="1" style="stop-color:#5CA7BA"/>
		</linearGradient>
		<linearGradient id="SVGID_2_" gradientUnits="userSpaceOnUse" x1="395.1696" y1="447.3496" x2="395.1696" y2="211.8587">
			<stop  offset="1.209077e-03" style="stop-color:#E0B250"/>
			<stop  offset="1" style="stop-color:#FFED91"/>
		</linearGradient>
		<path class="st0" d="M478.97,212.86c-45.14,0-42.64,91.07-65.2,91.07c-22.56,0-14.21-23.1-41.91-23.1
			c-38.34,0-60.49,165.52-60.49,165.52l167.6,0V212.86z"/>
		<linearGradient id="SVGID_3_" gradientUnits="userSpaceOnUse" x1="444.1119" y1="339.5145" x2="444.1119" y2="252.2063">
			<stop  offset="0" style="stop-color:#EFCF70"/>
			<stop  offset="1" style="stop-color:#FFED90"/>
		</linearGradient>
		<path class="st1" d="M409.02,329.6c6.38,19.53,24.72,4.3,28.65-20.05c3.93-24.35,16.3-56.34,27.22-56.34s14.32,29.6,14.32,29.6"/>
		<linearGradient id="SVGID_4_" gradientUnits="userSpaceOnUse" x1="415.2424" y1="321.295" x2="415.2424" y2="290.4052">
			<stop  offset="0" style="stop-color:#EFCF70"/>
			<stop  offset="1" style="stop-color:#FFED90"/>
		</linearGradient>
		<path class="st2" d="M404.11,314.3c4.91,14.35,14.46,1.46,22.27-22.89"/>
		<linearGradient id="SVGID_5_" gradientUnits="userSpaceOnUse" x1="420.6083" y1="390.29" x2="420.6083" y2="294.2973">
			<stop  offset="0" style="stop-color:#EFCF70"/>
			<stop  offset="1" style="stop-color:#FFED90"/>
		</linearGradient>
		<path class="st3" d="M396.87,295.3c16.45,37.17,22.18,93.99,47.48,93.99"/>
		<linearGradient id="SVGID_6_" gradientUnits="userSpaceOnUse" x1="386.2535" y1="381.1415" x2="386.2535" y2="295.6573">
			<stop  offset="0" style="stop-color:#EFCF70"/>
			<stop  offset="1" style="stop-color:#FFED90"/>
		</linearGradient>
		<path class="st4" d="M358.72,329.44c3.19-11.62,12.02-32.69,20.7-32.78c8.68-0.1,17.19,20.77,20.53,32.95l13.85,50.54"/>
		<linearGradient id="SVGID_7_" gradientUnits="userSpaceOnUse" x1="444.1119" y1="419.265" x2="444.1119" y2="323.7863">
			<stop  offset="0" style="stop-color:#EFCF70"/>
			<stop  offset="1" style="stop-color:#FFED90"/>
		</linearGradient>
		<path class="st5" d="M409.02,418.26c16.71-1.28,33.38-14.91,37.72-37.09c4.34-22.18,15.76-56.43,32.47-56.39"/>
	</g>
	<g>
		<linearGradient id="SVGID_8_" gradientUnits="userSpaceOnUse" x1="221.1429" y1="429.3988" x2="221.1429" y2="153.4116">
			<stop  offset="0" style="stop-color:#EBD1C6"/>
			<stop  offset="1" style="stop-color:#C28A9F"/>
		</linearGradient>
		<linearGradient id="SVGID_9_" gradientUnits="userSpaceOnUse" x1="221.1429" y1="430.3988" x2="221.1429" y2="152.4116">
			<stop  offset="1.209077e-03" style="stop-color:#E0B250"/>
			<stop  offset="1" style="stop-color:#FFED91"/>
		</linearGradient>
		<path class="st6" d="M120.79,226.8c2.7-11.37,3.6-27.91,15.29-27.91c14.39,0,12.59,32.04,26.09,32.04
			c22.49,0,16.19-77.52,60.27-77.52c65.67,0,99.05,275.99,99.05,275.99h-200.4L120.79,226.8z"/>
		<linearGradient id="SVGID_10_" gradientUnits="userSpaceOnUse" x1="166.3369" y1="258.0383" x2="166.3369" y2="193.1156">
			<stop  offset="0" style="stop-color:#EFCF70"/>
			<stop  offset="1" style="stop-color:#FFED90"/>
		</linearGradient>
		<path class="st7" d="M149.13,214.02c4.91,18.18,7.78,42.53,14.46,43.01c12.61,0.9,17.48-48.95,19.96-62.91"/>
		<linearGradient id="SVGID_11_" gradientUnits="userSpaceOnUse" x1="163.1944" y1="239.9068" x2="163.1944" y2="221.0464">
			<stop  offset="0" style="stop-color:#EFCF70"/>
			<stop  offset="1" style="stop-color:#FFED90"/>
		</linearGradient>
		<path class="st8" d="M153.08,223.6c7.64,18.62,10.84,22.67,20.22-1.56"/>
		<linearGradient id="SVGID_12_" gradientUnits="userSpaceOnUse" x1="138.1608" y1="279.9958" x2="138.1608" y2="231.7229">
			<stop  offset="0" style="stop-color:#EFCF70"/>
			<stop  offset="1" style="stop-color:#FFED90"/>
		</linearGradient>
		<path class="st9" d="M120.79,258.07c6.51-23.01,18.44-36.38,26.08-13.46c6.92,20.75,8.65,34.38,8.65,34.38"/>
		<linearGradient id="SVGID_13_" gradientUnits="userSpaceOnUse" x1="243.8794" y1="258.0383" x2="243.8794" y2="186.3">
			<stop  offset="0" style="stop-color:#EFCF70"/>
			<stop  offset="1" style="stop-color:#FFED90"/>
		</linearGradient>
		<path class="st10" d="M272.93,245.57c-7-23.48-25.35-74.77-37.24-53c-11.89,21.77-20.86,64.47-20.86,64.47"/>
		<linearGradient id="SVGID_14_" gradientUnits="userSpaceOnUse" x1="194.4152" y1="293.1088" x2="194.4152" y2="166.5476">
			<stop  offset="0" style="stop-color:#EFCF70"/>
			<stop  offset="1" style="stop-color:#FFED90"/>
		</linearGradient>
		<path class="st11" d="M155.53,279c5.67,34.37,27.64-3.83,33.84-56.83c3.73-31.81,17.81-60.8,29.6-53.48
			c13.85,8.59,14.32,28.17,14.32,28.17"/>
		<linearGradient id="SVGID_15_" gradientUnits="userSpaceOnUse" x1="212.2349" y1="248.9456" x2="212.2349" y2="183.1071">
			<stop  offset="0" style="stop-color:#EFCF70"/>
			<stop  offset="1" style="stop-color:#FFED90"/>
		</linearGradient>
		<path class="st12" d="M229.48,206.41c-4.48-25.86-12.41-28.17-19.58-12.41c-6.51,14.33-14.92,53.95-14.92,53.95"/>
	</g>
	<g>
		<linearGradient id="SVGID_16_" gradientUnits="userSpaceOnUse" x1="289.8838" y1="446.3496" x2="289.8838" y2="238.7584">
			<stop  offset="0.2326" style="stop-color:#5DA7BA"/>
			<stop  offset="0.815" style="stop-color:#9DBD88"/>
		</linearGradient>
		<linearGradient id="SVGID_17_" gradientUnits="userSpaceOnUse" x1="289.8527" y1="447.3496" x2="289.8527" y2="237.7584">
			<stop  offset="0" style="stop-color:#EFCF70"/>
			<stop  offset="1" style="stop-color:#FFED90"/>
		</linearGradient>
		<path class="st13" d="M164.54,446.35c8.18-39.54,28.17-207.59,95.15-207.59c46.5,0,46.15,68.49,58.6,77.48
			c13.34,9.63,54.15-0.91,65.94,23.11c14.11,28.76,29.75,98.92,30.99,107.01C370.39,446.35,164.54,446.35,164.54,446.35z"/>
		<linearGradient id="SVGID_18_" gradientUnits="userSpaceOnUse" x1="251.4461" y1="373.5779" x2="251.4461" y2="258.0851">
			<stop  offset="0" style="stop-color:#EFCF70"/>
			<stop  offset="1" style="stop-color:#FFED90"/>
		</linearGradient>
		<path class="st14" d="M292.99,291.88c-13.91-32.95-33.42-47.27-54.43-13.37c-13.35,21.54-28.65,94.06-28.65,94.06"/>
		<linearGradient id="SVGID_19_" gradientUnits="userSpaceOnUse" x1="212.9512" y1="330.6042" x2="212.9512" y2="283.7061">
			<stop  offset="0" style="stop-color:#EFCF70"/>
			<stop  offset="1" style="stop-color:#FFED90"/>
		</linearGradient>
		<path class="st15" d="M230.91,295.7c-3.07-13.73-14.32-14.32-19.58-3.34c-5.25,10.98-16.35,37.24-16.35,37.24"/>
		<linearGradient id="SVGID_20_" gradientUnits="userSpaceOnUse" x1="270.8694" y1="389.2138" x2="270.8694" y2="326.9395">
			<stop  offset="0.2326" style="stop-color:#5DA7BA"/>
			<stop  offset="0.8438" style="stop-color:#5CA7BA"/>
		</linearGradient>
		<linearGradient id="SVGID_21_" gradientUnits="userSpaceOnUse" x1="270.8723" y1="389.4286" x2="270.8723" y2="325.9395">
			<stop  offset="0" style="stop-color:#EFCF70"/>
			<stop  offset="1" style="stop-color:#FFED90"/>
		</linearGradient>
		<path class="st16" d="M305.88,387.38c-5.73-30.08-30.07-79.84-46.32-52.52c-18.65,31.36-23.7,54.36-23.7,54.36"/>
		<linearGradient id="SVGID_22_" gradientUnits="userSpaceOnUse" x1="349.3309" y1="379.7853" x2="349.3309" y2="321.4419">
			<stop  offset="0" style="stop-color:#EFCF70"/>
			<stop  offset="1" style="stop-color:#FFED90"/>
		</linearGradient>
		<path class="st17" d="M384.66,378.79c-6.68-23.87-14.8-32.47-28.65-33.9c-28.12-2.91-30.56-3.34-42.02-22.44"/>
		<linearGradient id="SVGID_23_" gradientUnits="userSpaceOnUse" x1="365.0378" y1="414.1193" x2="365.0378" y2="356.5578">
			<stop  offset="0.2326" style="stop-color:#5DA7BA"/>
			<stop  offset="0.8438" style="stop-color:#5CA7BA"/>
		</linearGradient>
		<linearGradient id="SVGID_24_" gradientUnits="userSpaceOnUse" x1="365.0921" y1="414.2651" x2="365.0921" y2="355.5578">
			<stop  offset="0" style="stop-color:#EFCF70"/>
			<stop  offset="1" style="stop-color:#FFED90"/>
		</linearGradient>
		<path class="st18" d="M392.78,414.12c-10.98-74.49-35.47-60.9-40.59-45.36s-14.9,33.73-14.9,33.73"/>
		<linearGradient id="SVGID_25_" gradientUnits="userSpaceOnUse" x1="337.4371" y1="384.1591" x2="337.4371" y2="359.6957">
			<stop  offset="0" style="stop-color:#EFCF70"/>
			<stop  offset="1" style="stop-color:#FFED90"/>
		</linearGradient>
		<path class="st19" d="M322.68,383.16c9.46-18.7,16.15-31.59,29.52-14.4"/>
		<linearGradient id="SVGID_26_" gradientUnits="userSpaceOnUse" x1="265.1961" y1="352.851" x2="265.1961" y2="303.9315">
			<stop  offset="0" style="stop-color:#EFCF70"/>
			<stop  offset="1" style="stop-color:#FFED90"/>
		</linearGradient>
		<path class="st20" d="M236.64,338.68c9.55-29.6,20.05-45.84,36.29-22.92c10.95,15.46,16.32,26.35,20.82,36.09"/>
	</g>
	<g>
		<linearGradient id="SVGID_27_" gradientUnits="userSpaceOnUse" x1="233.7266" y1="389.2138" x2="279.3695" y2="389.2138">
			<stop  offset="0" style="stop-color:#E86D7C"/>
			<stop  offset="1" style="stop-color:#EFAB90"/>
		</linearGradient>
		<linearGradient id="SVGID_28_" gradientUnits="userSpaceOnUse" x1="256.5481" y1="411.1804" x2="256.5481" y2="367.2471">
			<stop  offset="1.209077e-03" style="stop-color:#E0B250"/>
			<stop  offset="1" style="stop-color:#FFED91"/>
		</linearGradient>
		<path class="st21" d="M279.37,375.49c-5.57,7.93-10.37,18.63-15.27,29.32c-5.46,11.63-13.51,6.51-30.38-36.56
			c2.98,7.38,8.57,12.4,15.04,14.91c0,0,0,0,0,0C259.06,387.17,271.57,384.82,279.37,375.49z"/>
		<linearGradient id="SVGID_29_" gradientUnits="userSpaceOnUse" x1="272.0569" y1="446.3496" x2="272.0569" y2="277.5581">
			<stop  offset="0" style="stop-color:#E86D7C"/>
			<stop  offset="1" style="stop-color:#EFAB90"/>
		</linearGradient>
		<linearGradient id="SVGID_30_" gradientUnits="userSpaceOnUse" x1="272.0569" y1="447.3496" x2="272.0569" y2="276.5581">
			<stop  offset="1.209077e-03" style="stop-color:#E0B250"/>
			<stop  offset="1" style="stop-color:#FFED91"/>
		</linearGradient>
		<path class="st22" d="M423.26,446.35h-62.21c-19.37-3.23-29.93-38.23-31.29-43.69c-1.43-5.73-7.64-9.07-12.97-1.48
			c1.79,5.68,3.43,11.71,5.18,17.47v0c4.18,13.73,9,25.87,17.85,27.69H121.12l-0.02-8.83l-0.24-85.15
			c0-38.47,17.11-74.81,55.15-74.81c27.61,0,46.14,59.52,57.41,89.89c0.11,0.27,0.21,0.53,0.31,0.8
			c16.86,43.07,24.92,48.19,30.38,36.56c4.9-10.69,9.69-21.39,15.27-29.32c0.9-1.08,1.74-2.25,2.51-3.51
			c5.43-8.99,15.86-14.43,24.51-14.43c18.04,0,23.03,19.01,29.48,33.24c0.26,0.56,0.52,1.13,0.78,1.69
			c2.31,4.84,4.88,8.98,8.31,11.39c4.77,3.34,11.69,4.77,26.26,4.77C409.41,408.63,405.59,446.35,423.26,446.35z"/>
		<linearGradient id="SVGID_31_" gradientUnits="userSpaceOnUse" x1="245.8381" y1="447.5883" x2="245.8381" y2="403.8035">
			<stop  offset="1.209077e-03" style="stop-color:#E0B250"/>
			<stop  offset="1" style="stop-color:#E8C161"/>
		</linearGradient>
		<path class="st23" d="M264.1,404.8c-5.86,12.82-11.88,25.62-19.57,33.62c-4.08,4.24-8.62,7.11-13.87,7.93
			c-1,0.16-2.03,0.24-3.09,0.24"/>
		<linearGradient id="SVGID_32_" gradientUnits="userSpaceOnUse" x1="192.6007" y1="439.4185" x2="192.6007" y2="294.7079">
			<stop  offset="1.209077e-03" style="stop-color:#E0B250"/>
			<stop  offset="1" style="stop-color:#FFED91"/>
		</linearGradient>
		<path class="st24" d="M140.67,329.6c5.25-27.69,37.99-57.83,60.3-4.33c17.76,42.61,16.22,93.98,43.56,113.14"/>
		<linearGradient id="SVGID_33_" gradientUnits="userSpaceOnUse" x1="174.494" y1="447.5883" x2="174.494" y2="323.7863">
			<stop  offset="1.209077e-03" style="stop-color:#E0B250"/>
			<stop  offset="1" style="stop-color:#FFED91"/>
		</linearGradient>
		<path class="st25" d="M121.42,403.51c17.34,0.59,34.06-18.95,34.06-41.43c0-36.77,26.48-58.48,37.72-6.21
			c9.55,44.41,14.77,90.72,34.38,90.72"/>
		<linearGradient id="SVGID_34_" gradientUnits="userSpaceOnUse" x1="139.1413" y1="385.8494" x2="139.1413" y2="346.4588">
			<stop  offset="1.209077e-03" style="stop-color:#E0B250"/>
			<stop  offset="1" style="stop-color:#FFED91"/>
		</linearGradient>
		<path class="st26" d="M156.87,347.94C156.87,347.94,156.87,347.94,156.87,347.94c-31.83-5.43-18.45,36.91-35.45,36.91"/>
		<linearGradient id="SVGID_35_" gradientUnits="userSpaceOnUse" x1="170.0347" y1="446.5883" x2="170.0347" y2="356.9778">
			<stop  offset="0" style="stop-color:#E86D7C"/>
			<stop  offset="1" style="stop-color:#EFAB90"/>
		</linearGradient>
		<linearGradient id="SVGID_36_" gradientUnits="userSpaceOnUse" x1="170.0347" y1="447.5883" x2="170.0347" y2="355.9778">
			<stop  offset="1.209077e-03" style="stop-color:#E0B250"/>
			<stop  offset="1" style="stop-color:#FFED91"/>
		</linearGradient>
		<path class="st27" d="M121.09,437.52c18.86,0.13,31.47-15.56,33.9-31.99c8.12-54.91,25.78-59.21,32.47-32.95
			c3.91,15.37,13.6,74.01,31.51,74.01"/>
		<linearGradient id="SVGID_37_" gradientUnits="userSpaceOnUse" x1="259.5873" y1="399.395" x2="259.5873" y2="382.1591">
			<stop  offset="1.209077e-03" style="stop-color:#E0B250"/>
			<stop  offset="1" style="stop-color:#FFED91"/>
		</linearGradient>
		<path class="st28" d="M248.77,383.16c4.59,9,10.04,25.1,21.64,7.02"/>
		<linearGradient id="SVGID_38_" gradientUnits="userSpaceOnUse" x1="358.7812" y1="447.3242" x2="358.7812" y2="389.7751">
			<stop  offset="1.209077e-03" style="stop-color:#E0B250"/>
			<stop  offset="1" style="stop-color:#E8C161"/>
		</linearGradient>
		<path class="st29" d="M335.86,390.78c12.04,26.21,30.46,55.55,45.84,55.55"/>
		<linearGradient id="SVGID_39_" gradientUnits="userSpaceOnUse" x1="340.9916" y1="447.5883" x2="340.9916" y2="445.3496">
			<stop  offset="1.209077e-03" style="stop-color:#E0B250"/>
			<stop  offset="1" style="stop-color:#FFED91"/>
		</linearGradient>
		<path class="st30" d="M342.17,446.59c-0.82,0-1.6-0.08-2.35-0.24"/>
		<linearGradient id="SVGID_40_" gradientUnits="userSpaceOnUse" x1="283.877" y1="447.1109" x2="283.877" y2="374.4314">
			<stop  offset="1.209077e-03" style="stop-color:#E0B250"/>
			<stop  offset="1" style="stop-color:#FFED91"/>
		</linearGradient>
		<path class="st31" d="M250.97,446.11c22.02-17.67,23.09-71.58,46.79-70.67c9.55,0.37,14.7,11.99,19.02,25.74"/>
		<linearGradient id="SVGID_41_" gradientUnits="userSpaceOnUse" x1="338.9169" y1="446.3496" x2="338.9169" y2="396.7669">
			<stop  offset="0" style="stop-color:#E86D7C"/>
			<stop  offset="1" style="stop-color:#EFAB90"/>
		</linearGradient>
		<linearGradient id="SVGID_42_" gradientUnits="userSpaceOnUse" x1="338.9169" y1="447.3496" x2="338.9169" y2="395.7669">
			<stop  offset="1.209077e-03" style="stop-color:#E0B250"/>
			<stop  offset="1" style="stop-color:#FFED91"/>
		</linearGradient>
		<path class="st32" d="M361.05,446.35h-21.23c-8.85-1.82-13.67-13.96-17.85-27.69c-1.75-5.76-3.39-11.79-5.18-17.47
			c5.33-7.6,11.54-4.25,12.97,1.48C331.12,408.12,341.68,443.12,361.05,446.35z"/>
		<linearGradient id="SVGID_43_" gradientUnits="userSpaceOnUse" x1="362.4904" y1="447.5883" x2="362.4904" y2="445.3496">
			<stop  offset="1.209077e-03" style="stop-color:#E0B250"/>
			<stop  offset="1" style="stop-color:#FFED91"/>
		</linearGradient>
		<path class="st33" d="M363.93,446.59c-0.98,0-1.94-0.08-2.88-0.24"/>
		<linearGradient id="SVGID_44_" gradientUnits="userSpaceOnUse" x1="302.1791" y1="438.3519" x2="302.1791" y2="403.9404">
			<stop  offset="1.209077e-03" style="stop-color:#E0B250"/>
			<stop  offset="1" style="stop-color:#FFED91"/>
		</linearGradient>
		<path class="st34" d="M322.59,419.85c-7.97-15.89-22.44-22.92-32.47-1.43c-7.88,16.89-8.36,18.94-8.36,18.94"/>
		<linearGradient id="SVGID_45_" gradientUnits="userSpaceOnUse" x1="378.1639" y1="447.5883" x2="378.1639" y2="416.4617">
			<stop  offset="1.209077e-03" style="stop-color:#E0B250"/>
			<stop  offset="1" style="stop-color:#FFED91"/>
		</linearGradient>
		<path class="st35" d="M350.29,417.46c51.09,0,38.46,29.13,55.76,29.13"/>
	</g>
</g>
</svg>
